<?xml version="1.0" encoding="utf-8"?>
<!-- Generator: Adobe Illustrator 19.0.0, SVG Export Plug-In . SVG Version: 6.00 Build 0)  -->
<svg version="1.1" id="Layer_1" xmlns="http://www.w3.org/2000/svg" xmlns:xlink="http://www.w3.org/1999/xlink" x="0px" y="0px"
	 width="45px" height="45px" viewBox="0 0 45 45" style="enable-background:new 0 0 45 45;" xml:space="preserve">
<style type="text/css">
	.st0{fill:#FFFFFF;stroke:#000000;stroke-miterlimit:10;}
	.st1{fill:#FFFFFF;}
</style>
<path id="XMLID_1_" class="st0" d="M243.8-222.8"/>
<g id="XMLID_83_">
	<g id="XMLID_3_">
		<path id="XMLID_69_" class="st1" d="M25.5,37.5c-0.2,0-0.4,0-0.6-0.1C24.3,37.1,24,36.6,24,36V9c0-0.8,0.7-1.5,1.5-1.5
			S27,8.2,27,9v23.8l8.6-7c0.6-0.5,1.6-0.4,2.1,0.2c0.5,0.6,0.4,1.6-0.2,2.1l-11,9C26.2,37.4,25.8,37.5,25.5,37.5z"/>
	</g>
	<g id="XMLID_5_">
		<path id="XMLID_70_" class="st1" d="M19.5,37.5c-0.3,0-0.7-0.1-0.9-0.3l-11-9c-0.6-0.5-0.7-1.5-0.2-2.1c0.5-0.6,1.5-0.7,2.1-0.2
			l8.6,7V9c0-0.8,0.7-1.5,1.5-1.5S21,8.2,21,9v27c0,0.6-0.3,1.1-0.9,1.4C19.9,37.4,19.7,37.5,19.5,37.5z"/>
	</g>
</g>
</svg>
