<svg xmlns="http://www.w3.org/2000/svg" xmlns:xlink="http://www.w3.org/1999/xlink" id="Layer_1" width="45" height="45" x="0" style="enable-background:new 0 0 45 45" y="0" version="1.1" viewBox="0 0 45 45" xml:space="preserve"><style type="text/css">.st0{stroke:#000;stroke-miterlimit:10}.st0,.st1{fill:#fff}</style><path id="XMLID_1_" d="M243.8-222.8" class="st0"/><g id="XMLID_83_"><g id="XMLID_3_"><path id="XMLID_69_" d="M25.5,37.5c-0.2,0-0.4,0-0.6-0.1C24.3,37.1,24,36.6,24,36V9c0-0.8,0.7-1.5,1.5-1.5 S27,8.2,27,9v23.8l8.6-7c0.6-0.5,1.6-0.4,2.1,0.2c0.5,0.6,0.4,1.6-0.2,2.1l-11,9C26.2,37.4,25.8,37.5,25.5,37.5z" class="st1"/></g><g id="XMLID_5_"><path id="XMLID_70_" d="M19.5,37.5c-0.3,0-0.7-0.1-0.9-0.3l-11-9c-0.6-0.5-0.7-1.5-0.2-2.1c0.5-0.6,1.5-0.7,2.1-0.2 l8.6,7V9c0-0.8,0.7-1.5,1.5-1.5S21,8.2,21,9v27c0,0.6-0.3,1.1-0.9,1.4C19.9,37.4,19.7,37.5,19.5,37.5z" class="st1"/></g></g></svg>