<svg xmlns="http://www.w3.org/2000/svg" viewBox="0 0 100 100"><circle cx="78" cy="14" r="1" fill="#f1bc19"></circle><circle cx="50" cy="50" r="38" fill="#f9dbd2"></circle><circle cx="84" cy="16" r="4" fill="#f1bc19"></circle><circle cx="14" cy="26" r="2" fill="#ee3e54"></circle><circle cx="78" cy="77" r="2" fill="#fbcd59"></circle><circle cx="17" cy="78" r="4" fill="#fbcd59"></circle><circle cx="24" cy="83" r="2" fill="#ee3e54"></circle><circle cx="64.483" cy="78.517" r="2.483" fill="#fff"></circle><circle cx="16" cy="48" r="1" fill="#fff"></circle><circle cx="86" cy="31" r="1" fill="#f1bc19"></circle><circle cx="84" cy="45" r="2" fill="#fff"></circle><g><path fill="#fff" d="M39.43,77.3c-2.608,0-4.729-1.92-4.729-4.28V27.98c0-2.36,2.121-4.28,4.729-4.28H60.57 c2.608,0,4.729,1.92,4.729,4.28V73.02c0.001,1.126-0.485,2.192-1.367,3.002c-0.898,0.825-2.093,1.279-3.361,1.279H39.43z"></path><path fill="#472b29" d="M60.57,24.4c2.222,0,4.03,1.606,4.03,3.581v45.04c0,0.928-0.405,1.811-1.14,2.485 c-0.769,0.706-1.795,1.095-2.888,1.095H39.43c-2.222,0-4.03-1.606-4.03-3.581V27.98c0-1.974,1.808-3.581,4.03-3.581H60.57 M60.57,23H39.43C36.443,23,34,25.241,34,27.98V73.02c0,2.739,2.443,4.98,5.43,4.98h21.142c2.986,0,5.43-2.241,5.428-4.98V27.98 C66,25.241,63.557,23,60.57,23L60.57,23z"></path></g><g><polygon fill="#c5def0" points="61,37.2 61,68 39,68 39,62.8 39,54.8 39,30 57.8,30 61,30"></polygon></g><g><circle cx="50.5" cy="73.5" r="2" fill="#cbc9bc"></circle><path fill="#472b29" d="M50.5,72c0.827,0,1.5,0.673,1.5,1.5S51.327,75,50.5,75S49,74.327,49,73.5S49.673,72,50.5,72 M50.5,71c-1.381,0-2.5,1.119-2.5,2.5s1.119,2.5,2.5,2.5s2.5-1.119,2.5-2.5S51.881,71,50.5,71L50.5,71z"></path></g><g><path fill="#472b29" d="M61.5,38c-0.276,0-0.5-0.224-0.5-0.5v-3c0-0.276,0.224-0.5,0.5-0.5s0.5,0.224,0.5,0.5v3 C62,37.776,61.776,38,61.5,38z"></path></g><g><path fill="#472b29" d="M38.5,61c-0.276,0-0.5-0.224-0.5-0.5v-3c0-0.276,0.224-0.5,0.5-0.5s0.5,0.224,0.5,0.5v3 C39,60.776,38.776,61,38.5,61z"></path></g><g><path fill="#472b29" d="M38.5,55.42c-0.276,0-0.5-0.224-0.5-0.5V31.398C38,30.076,39.076,29,40.398,29h19.188 C60.917,29,62,30.083,62,31.414c0,0.276-0.224,0.5-0.5,0.5s-0.5-0.224-0.5-0.5C61,30.634,60.365,30,59.586,30H40.398 C39.627,30,39,30.627,39,31.398V54.92C39,55.196,38.776,55.42,38.5,55.42z"></path><path fill="#472b29" d="M59.602,69H40.414C39.083,69,38,67.917,38,66.586V63.12c0-0.276,0.224-0.5,0.5-0.5 s0.5,0.224,0.5,0.5v3.466C39,67.366,39.635,68,40.414,68h19.188C60.373,68,61,67.373,61,66.602V40.667c0-0.276,0.224-0.5,0.5-0.5 s0.5,0.224,0.5,0.5v25.935C62,67.924,60.924,69,59.602,69z"></path></g><g><path fill="#88ae45" d="M43,52L43,52c-0.552,0-1-0.448-1-1v-4c0-0.552,0.448-1,1-1l0,0c0.552,0,1,0.448,1,1v4 C44,51.552,43.552,52,43,52z"></path><path fill="#472b29" d="M43,52.25c-0.689,0-1.25-0.561-1.25-1.25v-4c0-0.689,0.561-1.25,1.25-1.25s1.25,0.561,1.25,1.25v4 C44.25,51.689,43.689,52.25,43,52.25z M43,46.25c-0.413,0-0.75,0.336-0.75,0.75v4c0,0.414,0.337,0.75,0.75,0.75 s0.75-0.336,0.75-0.75v-4C43.75,46.586,43.413,46.25,43,46.25z"></path><path fill="#88ae45" d="M57,52L57,52c-0.552,0-1-0.448-1-1v-4c0-0.552,0.448-1,1-1l0,0c0.552,0,1,0.448,1,1v4 C58,51.552,57.552,52,57,52z"></path><path fill="#472b29" d="M57,52.25c-0.689,0-1.25-0.561-1.25-1.25v-4c0-0.689,0.561-1.25,1.25-1.25s1.25,0.561,1.25,1.25v4 C58.25,51.689,57.689,52.25,57,52.25z M57,46.25c-0.413,0-0.75,0.336-0.75,0.75v4c0,0.414,0.337,0.75,0.75,0.75 s0.75-0.336,0.75-0.75v-4C57.75,46.586,57.413,46.25,57,46.25z"></path><path fill="#88ae45" d="M45,46v6.88c0,0.576,0.441,1.033,1,1.096V57c0,0.552,0.448,1,1,1s1-0.448,1-1v-3h4v3 c0,0.552,0.448,1,1,1s1-0.448,1-1v-3.024c0.559-0.063,1-0.52,1-1.096V46H45z"></path><path fill="#472b29" d="M53,58.25c-0.689,0-1.25-0.561-1.25-1.25v-2.75h-3.5V57c0,0.689-0.561,1.25-1.25,1.25 s-1.25-0.561-1.25-1.25v-2.819c-0.583-0.163-1-0.688-1-1.301v-7.13h10.5v7.13c0,0.613-0.417,1.138-1,1.301V57 C54.25,57.689,53.689,58.25,53,58.25z M47.75,53.75h4.5V57c0,0.414,0.337,0.75,0.75,0.75s0.75-0.336,0.75-0.75v-3.248l0.223-0.025 c0.443-0.05,0.777-0.414,0.777-0.847v-6.63h-9.5v6.63c0,0.434,0.334,0.798,0.777,0.847l0.223,0.025V57 c0,0.414,0.337,0.75,0.75,0.75s0.75-0.336,0.75-0.75V53.75z"></path><path fill="#88ae45" d="M50,40L50,40c-2.761,0-5,2.239-5,5v0h10v0C55,42.239,52.761,40,50,40z"></path><path fill="#472b29" d="M55.25,45.25h-10.5V45c0-2.895,2.355-5.25,5.25-5.25s5.25,2.355,5.25,5.25V45.25z M45.257,44.75 h9.486c-0.13-2.503-2.208-4.5-4.743-4.5S45.387,42.247,45.257,44.75z"></path><g><circle cx="52" cy="43" r=".5" fill="#fff"></circle></g><g><circle cx="48" cy="43" r=".5" fill="#fff"></circle></g><g><path fill="#472b29" d="M47,41.25c-0.092,0-0.18-0.051-0.224-0.138l-1-2c-0.062-0.124-0.012-0.274,0.112-0.335 c0.12-0.061,0.273-0.012,0.335,0.112l1,2c0.062,0.124,0.012,0.274-0.112,0.335C47.076,41.241,47.038,41.25,47,41.25z"></path></g><g><path fill="#472b29" d="M53,41.25c-0.038,0-0.076-0.009-0.111-0.026c-0.124-0.062-0.174-0.212-0.112-0.335l1-2 c0.062-0.124,0.214-0.173,0.335-0.112c0.124,0.062,0.174,0.212,0.112,0.335l-1,2C53.18,41.199,53.092,41.25,53,41.25z"></path></g></g></svg>