<svg xmlns="http://www.w3.org/2000/svg" xmlns:xlink="http://www.w3.org/1999/xlink" id="Layer_1" width="72" height="72" x="0" style="enable-background:new 0 0 72 72" y="0" version="1.1" viewBox="0 0 72 72" xml:space="preserve"><style type="text/css">.st0{clip-path:url(#XMLID_34_)}.st1{clip-path:url(#XMLID_35_)}.st2{fill:#fdd57d}.st3{clip-path:url(#XMLID_36_)}</style><g id="XMLID_7_"><defs><rect id="XMLID_2_" width="72" height="72"/></defs><clipPath id="XMLID_34_"><use xlink:href="#XMLID_2_" style="overflow:visible"/></clipPath><g id="XMLID_6_" class="st0"><g id="XMLID_10503_"><g id="XMLID_10314_"><defs><path id="XMLID_9943_" d="M72,0"/></defs><clipPath id="XMLID_35_"><use xlink:href="#XMLID_9943_" style="overflow:visible"/></clipPath><g id="XMLID_10487_" class="st1"><g id="XMLID_10491_"><rect id="XMLID_11924_" width="7.6" height="1" x="75.1" y=".9" class="st2" transform="matrix(0.7071 0.7071 -0.7071 0.7071 24.1351 -55.4001)"/></g><g id="XMLID_10490_"><rect id="XMLID_11923_" width="9.6" height="1" x="71.1" y="2.6" class="st2" transform="matrix(0.6397 0.7686 -0.7686 0.6397 29.7413 -57.1949)"/></g></g><g id="XMLID_10484_" class="st1"><g id="XMLID_10486_"><rect id="XMLID_11920_" width="5.7" height="1" x="68.2" y="1.1" class="st2" transform="matrix(0.5861 0.8103 -0.8103 0.5861 30.6648 -56.9239)"/></g><g id="XMLID_10485_"><rect id="XMLID_11919_" width="9.8" height="1" x="65.8" y="3" class="st2" transform="matrix(0.3776 0.926 -0.926 0.3776 47.2125 -63.3227)"/></g></g><g id="XMLID_10351_" class="st1"><g id="XMLID_10445_"><line id="XMLID_12136_" x1="76.9" x2="76.9" y1="-23" y2="-24" class="st2"/></g><g id="XMLID_10429_"><line id="XMLID_12135_" x1="74.9" x2="74.3" y1="-5.3" y2="-6.2" class="st2"/></g><g id="XMLID_10428_"><line id="XMLID_12134_" x1="76.7" x2="76.1" y1="-3.1" y2="-3.9" class="st2"/></g><g id="XMLID_10427_"><line id="XMLID_12133_" x1="78.7" x2="78.1" y1="-.9" y2="-1.7" class="st2"/></g><g id="XMLID_10424_"><line id="XMLID_12132_" x1="84.4" x2="84.4" y1="-2" y2="-3" class="st2"/></g><g id="XMLID_10393_"><rect id="XMLID_11829_" width="1" height="7" x="73.7" y="-22.6" class="st2" transform="matrix(0.5352 0.8447 -0.8447 0.5352 18.3184 -71.5384)"/></g><g id="XMLID_10392_"><rect id="XMLID_11828_" width="1" height="10.9" x="75.3" y="-22.3" class="st2" transform="matrix(0.5333 0.8459 -0.8459 0.5333 21.1055 -71.9688)"/></g><g id="XMLID_10391_"><rect id="XMLID_11827_" width="1" height="15.5" x="76.9" y="-20.2" class="st2" transform="matrix(0.5605 0.8281 -0.8281 0.5605 23.7634 -69.5854)"/></g><g id="XMLID_10390_"><rect id="XMLID_11826_" width="1" height="3.7" x="72.1" y="-7.7" class="st2" transform="matrix(0.4919 0.8706 -0.8706 0.4919 31.7881 -66.1775)"/></g><g id="XMLID_10389_"><rect id="XMLID_11825_" width="3.3" height="1" x="71.1" y="-20.8" class="st2" transform="matrix(0.9864 0.1646 -0.1646 0.9864 -2.345 -12.2508)"/></g><g id="XMLID_10388_"><polyline id="XMLID_9949_" points="73.9 -24.2 73.6 -23.3 70.9 -24.2" class="st2"/></g><g id="XMLID_10387_"><rect id="XMLID_11823_" width="3.8" height="1" x="71" y="-22.8" class="st2" transform="matrix(0.9763 0.2165 -0.2165 0.9763 -3.0958 -16.311)"/></g><g id="XMLID_10383_"><path id="XMLID_9947_" d="M73.9-23.9" class="st2"/></g><g id="XMLID_10382_"><line id="XMLID_12129_" x1="83.1" x2="83.8" y1="-20" y2="-20.7" class="st2"/></g><g id="XMLID_10372_"><rect id="XMLID_11808_" width="9.5" height="1" x="70.6" y="-2.6" class="st2" transform="matrix(0.7071 0.7071 -0.7071 0.7071 20.5726 -53.9245)"/></g><g id="XMLID_10371_"><rect id="XMLID_11807_" width="6.9" height="1" x="68.4" y="-2.2" class="st2" transform="matrix(0.6398 0.7685 -0.7685 0.6398 24.5389 -55.8282)"/></g></g><g id="XMLID_10332_" class="st1"><g id="XMLID_10345_"><line id="XMLID_9946_" x1="47" x2="46.3" y1="-21.4" y2="-22.1" class="st2"/></g><g id="XMLID_10344_"><rect id="XMLID_11781_" width="1" height="11.3" x="67.4" y="-20.8" class="st2" transform="matrix(0.5352 0.8447 -0.8447 0.5352 18.7603 -64.4137)"/></g><g id="XMLID_10343_"><rect id="XMLID_11780_" width="1" height="12.6" x="67" y="-17.9" class="st2" transform="matrix(0.5333 0.8459 -0.8459 0.5333 21.6573 -62.4857)"/></g><g id="XMLID_10342_"><rect id="XMLID_11779_" width="1" height="7.1" x="69.3" y="-10.8" class="st2" transform="matrix(0.5605 0.8281 -0.8281 0.5605 24.6855 -60.9889)"/></g><g id="XMLID_10341_"><rect id="XMLID_11778_" width="1" height="4.4" x="70.3" y="-7" class="st2" transform="matrix(0.4919 0.8706 -0.8706 0.4919 31.7582 -64.0755)"/></g><g id="XMLID_10340_"><rect id="XMLID_11777_" width="14.9" height="1" x="57.8" y="-22" class="st2" transform="matrix(0.9864 0.1644 -0.1644 0.9864 -2.6519 -11.0139)"/></g><g id="XMLID_10339_"><line id="XMLID_9945_" x1="72.8" x2="72.5" y1="-24.6" y2="-23.6" class="st2"/></g><g id="XMLID_10338_"><line id="XMLID_9944_" x1="72.7" x2="72.5" y1="-22.8" y2="-21.9" class="st2"/></g><g id="XMLID_10333_"><rect id="XMLID_11770_" width="5" height="1" x="68.7" y="-3" class="st2" transform="matrix(0.6398 0.7685 -0.7685 0.6398 23.7541 -55.6229)"/></g></g></g></g><g id="XMLID_10313_"><g id="XMLID_10124_"><defs><line id="XMLID_12103_" x1="72" x2="72" y1="72" y2="0"/></defs><clipPath id="XMLID_36_"><use xlink:href="#XMLID_12103_" style="overflow:visible"/></clipPath><g id="XMLID_10297_" class="st3"><g id="XMLID_10301_"><rect id="XMLID_11744_" width="7.6" height="1" x="75.1" y="72.9" class="st2" transform="matrix(0.7071 0.7071 -0.7071 0.7071 75.0468 -34.3118)"/></g><g id="XMLID_10300_"><rect id="XMLID_11743_" width="9.6" height="1" x="71.1" y="74.6" class="st2" transform="matrix(0.6397 0.7686 -0.7686 0.6397 85.0838 -31.2514)"/></g></g><g id="XMLID_10294_" class="st3"><g id="XMLID_10296_"><rect id="XMLID_11740_" width="5.7" height="1" x="68.2" y="73.1" class="st2" transform="matrix(0.5861 0.8103 -0.8103 0.5861 89.0037 -27.1208)"/></g><g id="XMLID_10295_"><rect id="XMLID_11739_" width="9.8" height="1" x="65.8" y="75" class="st2" transform="matrix(0.3776 0.926 -0.926 0.3776 113.8828 -18.5085)"/></g></g><g id="XMLID_10161_" class="st3"><g id="XMLID_10271_"><line id="XMLID_12119_" x1="80.6" x2="80.6" y1="42.5" y2="41.5" class="st2"/></g><g id="XMLID_10270_"><line id="XMLID_12118_" x1="79.6" x2="79.6" y1="46" y2="45" class="st2"/></g><g id="XMLID_10269_"><line id="XMLID_12117_" x1="75.6" x2="74.9" y1="34.4" y2="33.8" class="st2"/></g><g id="XMLID_10267_"><line id="XMLID_12116_" x1="79.1" x2="79.1" y1="8.7" y2="7.7" class="st2"/></g><g id="XMLID_10265_"><rect id="XMLID_11711_" width="9.4" height="1" x="72.3" y="34.8" class="st2" transform="matrix(0.7879 0.6158 -0.6158 0.7879 38.0986 -39.9414)"/></g><g id="XMLID_10260_"><path id="XMLID_12115_" d="M85.6,37.9" class="st2"/></g><g id="XMLID_10259_"><rect id="XMLID_11705_" width="1" height="11.2" x="82.4" y="27" class="st2" transform="matrix(0.9965 8.401563e-002 -8.401563e-002 0.9965 3.0312 -6.8505)"/></g><g id="XMLID_10258_"><rect id="XMLID_11704_" width="1" height="4.1" x="79.3" y="31.2" class="st2" transform="matrix(0.9828 0.1846 -0.1846 0.9828 7.5099 -14.1543)"/></g><g id="XMLID_10257_"><line id="XMLID_12114_" x1="80.4" x2="80.4" y1="6" y2="5" class="st2"/></g><g id="XMLID_10256_"><line id="XMLID_12113_" x1="83.3" x2="83.3" y1="3" y2="2" class="st2"/></g><g id="XMLID_10255_"><line id="XMLID_12112_" x1="76.9" x2="76.9" y1="49" y2="48" class="st2"/></g><g id="XMLID_10239_"><line id="XMLID_12111_" x1="74.9" x2="74.3" y1="66.7" y2="65.8" class="st2"/></g><g id="XMLID_10238_"><line id="XMLID_12110_" x1="76.7" x2="76.1" y1="68.9" y2="68.1" class="st2"/></g><g id="XMLID_10237_"><line id="XMLID_12109_" x1="78.7" x2="78.1" y1="71.1" y2="70.3" class="st2"/></g><g id="XMLID_10234_"><line id="XMLID_12108_" x1="84.4" x2="84.4" y1="70" y2="69" class="st2"/></g><g id="XMLID_10211_"><rect id="XMLID_11657_" width="7.6" height="1" x="75.1" y=".9" class="st2" transform="matrix(0.7071 0.7071 -0.7071 0.7071 24.1351 -55.4001)"/></g><g id="XMLID_10210_"><rect id="XMLID_11656_" width="9.6" height="1" x="71.1" y="2.6" class="st2" transform="matrix(0.6397 0.7686 -0.7686 0.6397 29.7413 -57.1949)"/></g><g id="XMLID_10209_"><rect id="XMLID_11655_" width="8.6" height="1" x="69.8" y="5.2" class="st2" transform="matrix(0.586 0.8103 -0.8103 0.586 35.2811 -57.6436)"/></g><g id="XMLID_10208_"><rect id="XMLID_11654_" width="9" height="1" x="68.7" y="9" class="st2" transform="matrix(0.3776 0.926 -0.926 0.3776 54.3597 -61.8374)"/></g><g id="XMLID_10207_"><rect id="XMLID_11653_" width="1" height="14.2" x="75.6" y="9.6" class="st2" transform="matrix(0.7506 0.6607 -0.6607 0.7506 30.0055 -46.0868)"/></g><g id="XMLID_10206_"><line id="XMLID_12107_" x1="71.6" x2="70.9" y1="31.2" y2="30.5" class="st2"/></g><g id="XMLID_10205_"><rect id="XMLID_11651_" width="1" height="8.4" x="73.8" y="10.1" class="st2" transform="matrix(0.7182 0.6958 -0.6958 0.7182 30.8591 -47.7162)"/></g><g id="XMLID_10204_"><polyline id="XMLID_12106_" points="71.8 26 71.1 25.3 85.2 11.3" class="st2"/></g><g id="XMLID_10203_"><rect id="XMLID_11649_" width="1" height="7" x="73.7" y="49.4" class="st2" transform="matrix(0.5352 0.8447 -0.8447 0.5352 79.1401 -38.0705)"/></g><g id="XMLID_10202_"><rect id="XMLID_11648_" width="1" height="10.9" x="75.3" y="49.7" class="st2" transform="matrix(0.5333 0.8459 -0.8459 0.5333 82.0107 -38.3686)"/></g><g id="XMLID_10201_"><rect id="XMLID_11647_" width="1" height="15.5" x="76.9" y="51.8" class="st2" transform="matrix(0.5605 0.8281 -0.8281 0.5605 83.3883 -37.9447)"/></g><g id="XMLID_10200_"><rect id="XMLID_11646_" width="1" height="3.7" x="72.1" y="64.3" class="st2" transform="matrix(0.4919 0.8706 -0.8706 0.4919 94.4739 -29.5964)"/></g><g id="XMLID_10199_"><rect id="XMLID_11645_" width="3.3" height="1" x="71.1" y="51.2" class="st2" transform="matrix(0.9864 0.1646 -0.1646 0.9864 9.5056 -11.2689)"/></g><g id="XMLID_10198_"><rect id="XMLID_11644_" width="2.9" height="1" x="70.9" y="47.3" class="st2" transform="matrix(0.9494 0.314 -0.314 0.9494 18.6675 -20.3109)"/></g><g id="XMLID_10197_"><rect id="XMLID_11643_" width="3.8" height="1" x="71" y="49.2" class="st2" transform="matrix(0.9763 0.2165 -0.2165 0.9763 12.4897 -14.6039)"/></g><g id="XMLID_10196_"><rect id="XMLID_11642_" width="7" height="1" x="70.6" y="40.9" class="st2" transform="matrix(0.7943 0.6075 -0.6075 0.7943 40.3821 -36.5124)"/></g><g id="XMLID_10195_"><rect id="XMLID_11641_" width="5.7" height="1" x="70.8" y="43.5" class="st2" transform="matrix(0.8558 0.5174 -0.5174 0.8558 33.399 -31.7708)"/></g><g id="XMLID_10194_"><rect id="XMLID_11640_" width="10.1" height="1" x="70.1" y="37.4" class="st2" transform="matrix(0.7495 0.662 -0.662 0.7495 43.9192 -40.226)"/></g><g id="XMLID_10193_"><rect id="XMLID_11639_" width="3.6" height="1" x="70.8" y="46.2" class="st2" transform="matrix(0.8601 0.5102 -0.5102 0.8601 33.9903 -30.5013)"/></g><g id="XMLID_10192_"><line id="XMLID_12105_" x1="83.1" x2="83.8" y1="52" y2="51.3" class="st2"/></g><g id="XMLID_10182_"><rect id="XMLID_11628_" width="9.5" height="1" x="70.6" y="69.4" class="st2" transform="matrix(0.7071 0.7071 -0.7071 0.7071 71.4843 -32.8362)"/></g><g id="XMLID_10181_"><rect id="XMLID_11627_" width="6.9" height="1" x="68.4" y="69.8" class="st2" transform="matrix(0.6398 0.7685 -0.7685 0.6398 79.8726 -29.8953)"/></g></g><g id="XMLID_10142_" class="st3"><g id="XMLID_10160_"><rect id="XMLID_11607_" width="5.7" height="1" x="68.2" y="1.1" class="st2" transform="matrix(0.5861 0.8103 -0.8103 0.5861 30.6648 -56.9239)"/></g><g id="XMLID_10159_"><rect id="XMLID_11606_" width="9.8" height="1" x="65.8" y="3" class="st2" transform="matrix(0.3776 0.926 -0.926 0.3776 47.2125 -63.3227)"/></g><g id="XMLID_10158_"><rect id="XMLID_11605_" width="1" height="18.1" x="66.1" y="18.4" class="st2" transform="matrix(0.7506 0.6607 -0.6607 0.7506 34.745 -37.1651)"/></g><g id="XMLID_10157_"><rect id="XMLID_11604_" width="1" height="15.3" x="66.8" y="27.2" class="st2" transform="matrix(0.7071 0.7071 -0.7071 0.7071 44.3428 -37.3735)"/></g><g id="XMLID_10156_"><rect id="XMLID_11603_" width="1" height="13.7" x="67.5" y="13.9" class="st2" transform="matrix(0.7182 0.6958 -0.6958 0.7182 33.6338 -41.433)"/></g><g id="XMLID_10155_"><rect id="XMLID_11602_" width="1" height="36.7" x="59.2" y="18.9" class="st2" transform="matrix(0.7052 0.7091 -0.7091 0.7052 44.0398 -31.3001)"/></g><g id="XMLID_10154_"><rect id="XMLID_11601_" width="1" height="11.3" x="67.4" y="51.2" class="st2" transform="matrix(0.5352 0.8447 -0.8447 0.5352 79.582 -30.9459)"/></g><g id="XMLID_10153_"><rect id="XMLID_11600_" width="1" height="12.6" x="67" y="54.1" class="st2" transform="matrix(0.5333 0.8459 -0.8459 0.5333 82.5626 -28.8855)"/></g><g id="XMLID_10152_"><rect id="XMLID_11599_" width="1" height="7.1" x="69.3" y="61.2" class="st2" transform="matrix(0.5605 0.8281 -0.8281 0.5605 84.3104 -29.3482)"/></g><g id="XMLID_10151_"><rect id="XMLID_11598_" width="1" height="4.4" x="70.3" y="65" class="st2" transform="matrix(0.4919 0.8706 -0.8706 0.4919 94.444 -27.4944)"/></g><g id="XMLID_10150_"><rect id="XMLID_11597_" width="14.9" height="1" x="57.8" y="50" class="st2" transform="matrix(0.9864 0.1644 -0.1644 0.9864 9.1833 -10.0345)"/></g><g id="XMLID_10149_"><rect id="XMLID_11596_" width="15.6" height="1" x="57.5" y="44.9" class="st2" transform="matrix(0.9494 0.314 -0.314 0.9494 17.568 -18.1976)"/></g><g id="XMLID_10148_"><rect id="XMLID_11595_" width="16.9" height="1" x="55.9" y="47.3" class="st2" transform="matrix(0.9763 0.2162 -0.2162 0.9763 11.863 -12.7879)"/></g><g id="XMLID_10147_"><rect id="XMLID_11594_" width="5.5" height="1" x="67.8" y="38.2" class="st2" transform="matrix(0.7944 0.6074 -0.6074 0.7944 37.994 -34.9095)"/></g><g id="XMLID_10146_"><rect id="XMLID_11593_" width="8.7" height="1" x="64.8" y="40.7" class="st2" transform="matrix(0.8558 0.5174 -0.5174 0.8558 31.3046 -29.8)"/></g><g id="XMLID_10145_"><rect id="XMLID_11592_" width="4.9" height="1" x="68.6" y="33.9" class="st2" transform="matrix(0.7495 0.662 -0.662 0.7495 40.5457 -38.4459)"/></g><g id="XMLID_10144_"><rect id="XMLID_11591_" width="10.8" height="1" x="62.6" y="43.5" class="st2" transform="matrix(0.8601 0.5101 -0.5101 0.8601 31.9603 -28.5453)"/></g><g id="XMLID_10143_"><rect id="XMLID_11590_" width="5" height="1" x="68.7" y="69" class="st2" transform="matrix(0.6398 0.7685 -0.7685 0.6398 79.0881 -29.6898)"/></g></g><g id="XMLID_10125_" class="st3"><g id="XMLID_10138_"><line id="XMLID_12104_" x1="83.1" x2="83.8" y1="-20" y2="-20.7" class="st2"/></g><g id="XMLID_10128_"><rect id="XMLID_11577_" width="9.5" height="1" x="70.6" y="-2.6" class="st2" transform="matrix(0.7071 0.7071 -0.7071 0.7071 20.5726 -53.9245)"/></g><g id="XMLID_10127_"><rect id="XMLID_11576_" width="6.9" height="1" x="68.4" y="-2.2" class="st2" transform="matrix(0.6398 0.7685 -0.7685 0.6398 24.5389 -55.8282)"/></g></g></g></g><g id="XMLID_10123_"><g id="XMLID_9934_"><g id="XMLID_9935_"><g id="XMLID_9937_"><rect id="XMLID_11396_" width="6.9" height="1" x="68.4" y="69.8" class="st2" transform="matrix(0.6398 0.7685 -0.7685 0.6398 79.8726 -29.8953)"/></g></g></g></g><g id="XMLID_9933_"><g id="XMLID_9744_"><g id="XMLID_9917_"><g id="XMLID_9931_"><rect id="XMLID_11394_" width="27.5" height="1" x="26.8" y="8.5" class="st2" transform="matrix(0.7037 0.7105 -0.7105 0.7037 18.4321 -26.1102)"/></g><g id="XMLID_9930_"><rect id="XMLID_11393_" width="13.4" height="1" x="33.2" y="3.5" class="st2" transform="matrix(0.7011 0.7131 -0.7131 0.7011 14.7697 -27.2901)"/></g><g id="XMLID_9929_"><rect id="XMLID_11392_" width="13" height="1" x="39.6" y="5.2" class="st2" transform="matrix(7.163311e-002 0.9974 -0.9974 7.163311e-002 48.5284 -40.647)"/></g><g id="XMLID_9928_"><rect id="XMLID_11391_" width="18.5" height="1" x="59.1" y="7.6" class="st2" transform="matrix(0.2817 0.9595 -0.9595 0.2817 56.8689 -59.7369)"/></g><g id="XMLID_9927_"><rect id="XMLID_11390_" width="16.8" height="1" x="41.2" y="7.1" class="st2" transform="matrix(8.838614e-002 0.9961 -0.9961 8.838614e-002 52.8392 -42.4947)"/></g><g id="XMLID_9926_"><rect id="XMLID_11389_" width="16.6" height="1" x="46.3" y="7" class="st2" transform="matrix(0.1261 0.992 -0.992 0.1261 55.1671 -47.5689)"/></g><g id="XMLID_9925_"><rect id="XMLID_11388_" width="15.6" height="1" x="50.5" y="6.5" class="st2" transform="matrix(0.1449 0.9895 -0.9895 0.1449 56.8189 -51.6863)"/></g><g id="XMLID_9924_"><rect id="XMLID_11387_" width="17.2" height="1" x="55.6" y="7.2" class="st2" transform="matrix(0.2294 0.9733 -0.9733 0.2294 56.9659 -56.5835)"/></g><g id="XMLID_9923_"><rect id="XMLID_11386_" width="4.6" height="1" x="40.2" y=".3" class="st2" transform="matrix(0.724 0.6898 -0.6898 0.724 12.2617 -29.0754)"/></g><g id="XMLID_9922_"><rect id="XMLID_11385_" width="27.6" height="1" x="20.4" y="9.4" class="st2" transform="matrix(0.6254 0.7803 -0.7803 0.6254 20.5592 -22.9655)"/></g><g id="XMLID_9921_"><rect id="XMLID_11384_" width="7.6" height="1" x="3.1" y=".9" class="st2" transform="matrix(0.7071 0.7071 -0.7071 0.7071 3.0468 -4.4884)"/></g><g id="XMLID_9920_"><rect id="XMLID_11383_" width="9.6" height="1" x="-.9" y="2.6" class="st2" transform="matrix(0.6397 0.7686 -0.7686 0.6397 3.7977 -1.8523)"/></g><g id="XMLID_9919_"><rect id="XMLID_11382_" width="5.7" height="1" x="68.2" y="1.1" class="st2" transform="matrix(0.5861 0.8103 -0.8103 0.5861 30.6648 -56.9239)"/></g><g id="XMLID_9918_"><rect id="XMLID_11381_" width="9.8" height="1" x="65.8" y="3" class="st2" transform="matrix(0.3776 0.926 -0.926 0.3776 47.2125 -63.3227)"/></g></g><g id="XMLID_9781_"><g id="XMLID_9782_"><rect id="XMLID_11248_" width="3.6" height="1" x="67.3" y="-1.1" class="st2" transform="matrix(0.3778 0.9259 -0.9259 0.3778 42.4066 -64.3115)"/></g></g></g></g><g id="XMLID_9743_"><g id="XMLID_9554_"><g id="XMLID_9704_"><g id="XMLID_9714_"><rect id="XMLID_11189_" width="1" height="3.7" x="72.1" y="64.3" class="st2" transform="matrix(0.4919 0.8706 -0.8706 0.4919 94.4739 -29.5964)"/></g><g id="XMLID_9713_"><rect id="XMLID_11188_" width="3.3" height="1" x="71.1" y="51.2" class="st2" transform="matrix(0.9864 0.1646 -0.1646 0.9864 9.5056 -11.2689)"/></g><g id="XMLID_9712_"><rect id="XMLID_11187_" width="2.9" height="1" x="70.9" y="47.3" class="st2" transform="matrix(0.9494 0.314 -0.314 0.9494 18.6675 -20.3109)"/></g><g id="XMLID_9707_"><rect id="XMLID_11182_" width="3.6" height="1" x="70.8" y="46.2" class="st2" transform="matrix(0.8601 0.5102 -0.5102 0.8601 33.9903 -30.5013)"/></g><g id="XMLID_9705_"><rect id="XMLID_11180_" width="6.9" height="1" x="68.4" y="69.8" class="st2" transform="matrix(0.6398 0.7685 -0.7685 0.6398 79.8726 -29.8953)"/></g></g><g id="XMLID_9591_"><g id="XMLID_9703_"><rect id="XMLID_11179_" width="5.3" height="1" x="35.1" y="18.9" class="st2" transform="matrix(0.9037 0.4281 -0.4281 0.9037 11.9268 -14.2972)"/></g><g id="XMLID_9702_"><rect id="XMLID_11178_" width="4" height="1" x="34.8" y="15.9" class="st2" transform="matrix(0.8222 0.5692 -0.5692 0.8222 15.8537 -18.0098)"/></g><g id="XMLID_9701_"><rect id="XMLID_11177_" width="1" height="23.4" x="19.8" y="30.1" class="st2" transform="matrix(2.147942e-002 0.9998 -0.9998 2.147942e-002 61.6165 20.5377)"/></g><g id="XMLID_9700_"><rect id="XMLID_11176_" width="1" height="25.9" x="20.1" y="32.4" class="st2" transform="matrix(9.765159e-003 1 -1 9.765159e-003 65.7345 24.3626)"/></g><g id="XMLID_9699_"><rect id="XMLID_11175_" width="1" height="29.1" x="12.2" y="8.5" class="st2" transform="matrix(0.761 0.6488 -0.6488 0.761 17.9935 -2.7224)"/></g><g id="XMLID_9698_"><rect id="XMLID_11174_" width="1" height="22" x="21.6" y="15.5" class="st2" transform="matrix(1 5.859274e-003 -5.859274e-003 1 0.1556 -0.1288)"/></g><g id="XMLID_9697_"><rect id="XMLID_11173_" width="24.5" height="1" x="7.1" y="8.2" class="st2" transform="matrix(0.9992 4.078237e-002 -4.078237e-002 0.9992 0.3728 -0.783)"/></g><g id="XMLID_9696_"><rect id="XMLID_11172_" width="9.6" height="1" x="35.1" y="39.5" class="st2" transform="matrix(0.8838 0.4679 -0.4679 0.8838 23.3481 -14.0108)"/></g><g id="XMLID_9695_"><rect id="XMLID_11171_" width="9.4" height="1" x=".3" y="34.8" class="st2" transform="matrix(0.7879 0.6158 -0.6158 0.7879 22.8291 4.3942)"/></g><g id="XMLID_9694_"><rect id="XMLID_11170_" width="1" height="24.6" x="28.4" y="12.5" class="st2"/></g><g id="XMLID_9693_"><rect id="XMLID_11169_" width="1" height="24.4" x="31.4" y="12.5" class="st2"/></g><g id="XMLID_9692_"><rect id="XMLID_11168_" width="25.1" height="1" x="12.5" y="24.2" class="st2" transform="matrix(1.745370e-002 0.9998 -0.9998 1.745370e-002 49.3093 -0.7479)"/></g><g id="XMLID_9691_"><rect id="XMLID_11167_" width="1" height="19.2" x="18.6" y="18.5" class="st2" transform="matrix(1 6.835778e-003 -6.835778e-003 1 0.1925 -0.1297)"/></g><g id="XMLID_9690_"><rect id="XMLID_11166_" width="1" height="14" x="14.1" y="24" class="st2" transform="matrix(0.9971 7.609963e-002 -7.609963e-002 0.9971 2.3987 -1.0211)"/></g><g id="XMLID_9689_"><rect id="XMLID_11165_" width="1" height="11.2" x="10.4" y="27" class="st2" transform="matrix(0.9965 8.401563e-002 -8.401563e-002 0.9965 2.7766 -0.8014)"/></g><g id="XMLID_9688_"><rect id="XMLID_11164_" width="1" height="4.1" x="7.3" y="31.2" class="st2" transform="matrix(0.9828 0.1846 -0.1846 0.9828 6.272 -0.8601)"/></g><g id="XMLID_9687_"><rect id="XMLID_11163_" width="20.5" height="1" x="8.4" y="5.4" class="st2" transform="matrix(0.9993 3.656090e-002 -3.656090e-002 0.9993 0.2271 -0.6772)"/></g><g id="XMLID_9686_"><rect id="XMLID_11162_" width="14.3" height="1" x="11.3" y="2.2" class="st2" transform="matrix(0.9994 3.491320e-002 -3.491320e-002 0.9994 0.1071 -0.6433)"/></g><g id="XMLID_9685_"><rect id="XMLID_11161_" width="27.9" height="1" x="4.9" y="48" class="st2"/></g><g id="XMLID_9684_"><rect id="XMLID_11160_" width="1" height="12.3" x="46.9" y="34.8" class="st2" transform="matrix(0.6487 0.761 -0.761 0.6487 47.8662 -21.7031)"/></g><g id="XMLID_9683_"><rect id="XMLID_11159_" width="20.4" height="1" x="32.1" y="49.4" class="st2" transform="matrix(0.8166 0.5772 -0.5772 0.8166 36.5435 -15.2786)"/></g><g id="XMLID_9682_"><rect id="XMLID_11158_" width="1" height="9.1" x="48" y="38.6" class="st2" transform="matrix(0.6793 0.7339 -0.7339 0.6793 47.2172 -21.7333)"/></g><g id="XMLID_9681_"><rect id="XMLID_11157_" width="12.7" height="1" x="33.4" y="43.7" class="st2" transform="matrix(0.7702 0.6378 -0.6378 0.7702 37.306 -15.1817)"/></g><g id="XMLID_9680_"><rect id="XMLID_11156_" width="24.2" height="1" x="22.6" y="60.2" class="st2" transform="matrix(0.6915 0.7224 -0.7224 0.6915 54.6071 -6.3641)"/></g><g id="XMLID_9679_"><rect id="XMLID_11155_" width="18.9" height="1" x="27.9" y="57.9" class="st2" transform="matrix(0.7137 0.7005 -0.7005 0.7137 51.5892 -9.4702)"/></g><g id="XMLID_9678_"><rect id="XMLID_11154_" width="11.8" height="1" x="32.1" y="54.5" class="st2" transform="matrix(0.6965 0.7176 -0.7176 0.6965 50.9992 -10.5782)"/></g><g id="XMLID_9677_"><rect id="XMLID_11153_" width="14.3" height="1" x="31.4" y="50.9" class="st2" transform="matrix(0.7411 0.6714 -0.6714 0.7411 44.5149 -12.5773)"/></g><g id="XMLID_9676_"><rect id="XMLID_11152_" width="15.4" height="1" x="42.8" y="26.1" class="st2" transform="matrix(0.3742 0.9274 -0.9274 0.3742 56.2927 -30.1752)"/></g><g id="XMLID_9675_"><rect id="XMLID_11151_" width="8.5" height="1" x="59.3" y="17.1" class="st2" transform="matrix(0.9598 0.2806 -0.2806 0.9598 7.4795 -17.1294)"/></g><g id="XMLID_9674_"><rect id="XMLID_11150_" width="9.3" height="1" x="56.8" y="18.8" class="st2" transform="matrix(0.8503 0.5264 -0.5264 0.8503 19.3631 -29.4488)"/></g><g id="XMLID_9673_"><rect id="XMLID_11149_" width="10.4" height="1" x="54" y="20.2" class="st2" transform="matrix(0.8072 0.5903 -0.5903 0.8072 23.6238 -30.9534)"/></g><g id="XMLID_9672_"><rect id="XMLID_11148_" width="13.6" height="1" x="50.7" y="22.2" class="st2" transform="matrix(0.7644 0.6447 -0.6447 0.7644 28.1957 -31.6744)"/></g><g id="XMLID_9671_"><rect id="XMLID_11147_" width="13.7" height="1" x="49.5" y="25.1" class="st2" transform="matrix(0.6202 0.7844 -0.7844 0.6202 41.5083 -34.4945)"/></g><g id="XMLID_9670_"><rect id="XMLID_11146_" width="19.1" height="1" x="45.3" y="28.1" class="st2" transform="matrix(0.5241 0.8517 -0.8517 0.5241 50.4924 -33.1172)"/></g><g id="XMLID_9669_"><rect id="XMLID_11145_" width="1" height="15.3" x="8.4" y="54.2" class="st2" transform="matrix(0.5739 0.8189 -0.8189 0.5739 54.45 19.0909)"/></g><g id="XMLID_9668_"><rect id="XMLID_11144_" width="1" height="15.1" x="10" y="56.6" class="st2" transform="matrix(0.5819 0.8133 -0.8133 0.5819 56.5397 18.2675)"/></g><g id="XMLID_9667_"><rect id="XMLID_11143_" width="1" height="15" x="11.9" y="58.7" class="st2" transform="matrix(0.5998 0.8001 -0.8001 0.5998 57.9581 16.6042)"/></g><g id="XMLID_9666_"><rect id="XMLID_11142_" width="6.4" height="1" x="51.3" y="36.2" class="st2" transform="matrix(0.3511 0.9363 -0.9363 0.3511 69.7727 -27.1899)"/></g><g id="XMLID_9665_"><rect id="XMLID_11141_" width="1" height="12.7" x="49.7" y="38" class="st2" transform="matrix(0.7091 0.7052 -0.7052 0.7091 45.9002 -22.5051)"/></g><g id="XMLID_9664_"><rect id="XMLID_11140_" width="9.8" height="1" x="12.4" y="69.2" class="st2" transform="matrix(0.9987 5.121475e-002 -5.121475e-002 0.9987 3.5947 -0.7921)"/></g><g id="XMLID_9663_"><rect id="XMLID_11139_" width="1" height="8" x="51.5" y="46.5" class="st2" transform="matrix(0.6913 0.7226 -0.7226 0.6913 52.5393 -21.9882)"/></g><g id="XMLID_9662_"><rect id="XMLID_11138_" width="1" height="5.8" x="56.5" y="51" class="st2" transform="matrix(0.8766 0.4812 -0.4812 0.8766 32.9941 -20.7917)"/></g><g id="XMLID_9661_"><rect id="XMLID_11137_" width="6.5" height="1" x="60.6" y="54.5" class="st2" transform="matrix(0.9971 7.669650e-002 -7.669650e-002 0.9971 4.4062 -4.7373)"/></g><g id="XMLID_9660_"><rect id="XMLID_11136_" width="1" height="8.6" x="54" y="48.2" class="st2" transform="matrix(0.8697 0.4935 -0.4935 0.8697 33.0066 -20.06)"/></g><g id="XMLID_9659_"><rect id="XMLID_11135_" width="12.8" height="1" x="35.5" y="22.1" class="st2" transform="matrix(0.9766 0.2149 -0.2149 0.9766 5.8385 -8.4699)"/></g><g id="XMLID_9658_"><rect id="XMLID_11134_" width="13.3" height="1" x="36.2" y="26" class="st2" transform="matrix(0.9744 0.2249 -0.2249 0.9744 7.056 -8.9632)"/></g><g id="XMLID_9657_"><rect id="XMLID_11133_" width="16.5" height="1" x="35.1" y="29.9" class="st2" transform="matrix(0.9755 0.2201 -0.2201 0.9755 7.7632 -8.7961)"/></g><g id="XMLID_9656_"><rect id="XMLID_11132_" width="15.4" height="1" x="35.5" y="33.5" class="st2" transform="matrix(0.9727 0.232 -0.232 0.9727 9.0569 -9.086)"/></g><g id="XMLID_9655_"><rect id="XMLID_11131_" width="13.2" height="1" x="35.4" y="36.1" class="st2" transform="matrix(0.9667 0.2559 -0.2559 0.9667 10.7536 -9.5313)"/></g><g id="XMLID_9654_"><rect id="XMLID_11130_" width="7.5" height="1" x="38.9" y="38.5" class="st2" transform="matrix(0.94 0.3411 -0.3411 0.94 15.8693 -12.2101)"/></g><g id="XMLID_9653_"><rect id="XMLID_11129_" width="7" height="1" x="13.9" y="67.4" class="st2" transform="matrix(0.9994 3.569153e-002 -3.569153e-002 0.9994 2.4335 -0.577)"/></g><g id="XMLID_9652_"><rect id="XMLID_11128_" width="3.6" height="1" x="15.6" y="65.6" class="st2" transform="matrix(0.9987 5.165508e-002 -5.165508e-002 0.9987 3.4372 -0.8127)"/></g><g id="XMLID_9651_"><rect id="XMLID_11127_" width="27.5" height="1" x="26.8" y="8.5" class="st2" transform="matrix(0.7037 0.7105 -0.7105 0.7037 18.4321 -26.1102)"/></g><g id="XMLID_9650_"><rect id="XMLID_11126_" width="13.4" height="1" x="33.2" y="3.5" class="st2" transform="matrix(0.7011 0.7131 -0.7131 0.7011 14.7697 -27.2901)"/></g><g id="XMLID_9649_"><rect id="XMLID_11125_" width="13" height="1" x="39.6" y="5.2" class="st2" transform="matrix(7.163311e-002 0.9974 -0.9974 7.163311e-002 48.5284 -40.647)"/></g><g id="XMLID_9648_"><rect id="XMLID_11124_" width="18.5" height="1" x="59.1" y="7.6" class="st2" transform="matrix(0.2817 0.9595 -0.9595 0.2817 56.8689 -59.7369)"/></g><g id="XMLID_9647_"><rect id="XMLID_11123_" width="16.8" height="1" x="41.2" y="7.1" class="st2" transform="matrix(8.838614e-002 0.9961 -0.9961 8.838614e-002 52.8392 -42.4947)"/></g><g id="XMLID_9646_"><rect id="XMLID_11122_" width="16.6" height="1" x="46.3" y="7" class="st2" transform="matrix(0.1261 0.992 -0.992 0.1261 55.1671 -47.5689)"/></g><g id="XMLID_9645_"><rect id="XMLID_11121_" width="15.6" height="1" x="50.5" y="6.5" class="st2" transform="matrix(0.1449 0.9895 -0.9895 0.1449 56.8189 -51.6863)"/></g><g id="XMLID_9644_"><rect id="XMLID_11120_" width="17.2" height="1" x="55.6" y="7.2" class="st2" transform="matrix(0.2294 0.9733 -0.9733 0.2294 56.9659 -56.5835)"/></g><g id="XMLID_9643_"><rect id="XMLID_11119_" width="4.6" height="1" x="40.2" y=".3" class="st2" transform="matrix(0.724 0.6898 -0.6898 0.724 12.2617 -29.0754)"/></g><g id="XMLID_9642_"><rect id="XMLID_11118_" width="27.6" height="1" x="20.4" y="9.4" class="st2" transform="matrix(0.6254 0.7803 -0.7803 0.6254 20.5592 -22.9655)"/></g><g id="XMLID_9641_"><rect id="XMLID_11117_" width="7.6" height="1" x="3.1" y=".9" class="st2" transform="matrix(0.7071 0.7071 -0.7071 0.7071 3.0468 -4.4884)"/></g><g id="XMLID_9640_"><rect id="XMLID_11116_" width="9.6" height="1" x="-.9" y="2.6" class="st2" transform="matrix(0.6397 0.7686 -0.7686 0.6397 3.7977 -1.8523)"/></g><g id="XMLID_9639_"><rect id="XMLID_11115_" width="8.6" height="1" x="-2.2" y="5.2" class="st2" transform="matrix(0.586 0.8103 -0.8103 0.586 5.4711 0.7002)"/></g><g id="XMLID_9638_"><rect id="XMLID_11114_" width="9" height="1" x="-3.3" y="9" class="st2" transform="matrix(0.3776 0.926 -0.926 0.3776 9.5495 4.8314)"/></g><g id="XMLID_9637_"><rect id="XMLID_11113_" width="1" height="14.2" x="3.6" y="9.6" class="st2" transform="matrix(0.7506 0.6607 -0.6607 0.7506 12.0513 1.4848)"/></g><g id="XMLID_9636_"><rect id="XMLID_11112_" width="1" height="26.9" x="8.3" y="7.9" class="st2" transform="matrix(0.7071 0.7071 -0.7071 0.7071 17.6756 6.948665e-002)"/></g><g id="XMLID_9635_"><rect id="XMLID_11111_" width="1" height="8.4" x="1.8" y="10.1" class="st2" transform="matrix(0.7182 0.6958 -0.6958 0.7182 10.5724 2.3811)"/></g><g id="XMLID_9634_"><rect id="XMLID_11110_" width="1" height="19.8" x="6" y="8.7" class="st2" transform="matrix(0.7052 0.7091 -0.7091 0.7052 15.105 0.9037)"/></g><g id="XMLID_9633_"><rect id="XMLID_11109_" width="1" height="7" x="1.7" y="49.4" class="st2" transform="matrix(0.5352 0.8447 -0.8447 0.5352 45.6722 22.7512)"/></g><g id="XMLID_9632_"><rect id="XMLID_11108_" width="1" height="10.9" x="3.3" y="49.7" class="st2" transform="matrix(0.5333 0.8459 -0.8459 0.5333 48.4106 22.5366)"/></g><g id="XMLID_9631_"><rect id="XMLID_11107_" width="1" height="15.5" x="4.9" y="51.8" class="st2" transform="matrix(0.5605 0.8281 -0.8281 0.5605 51.7476 21.6802)"/></g><g id="XMLID_9630_"><rect id="XMLID_11106_" width="1" height="3.7" x=".1" y="64.3" class="st2" transform="matrix(0.4919 0.8706 -0.8706 0.4919 57.8927 33.0894)"/></g><g id="XMLID_9629_"><rect id="XMLID_11105_" width="3.3" height="1" x="-.9" y="51.2" class="st2" transform="matrix(0.9864 0.1646 -0.1646 0.9864 8.5237 0.5817)"/></g><g id="XMLID_9628_"><rect id="XMLID_11104_" width="2.9" height="1" x="-1.1" y="47.3" class="st2" transform="matrix(0.9494 0.314 -0.314 0.9494 15.0261 2.2966)"/></g><g id="XMLID_9627_"><rect id="XMLID_11103_" width="3.8" height="1" x="-1" y="49.2" class="st2" transform="matrix(0.9763 0.2165 -0.2165 0.9763 10.7826 0.9815)"/></g><g id="XMLID_9626_"><rect id="XMLID_11102_" width="7" height="1" x="-1.4" y="40.9" class="st2" transform="matrix(0.7943 0.6075 -0.6075 0.7943 25.5736 7.227)"/></g><g id="XMLID_9625_"><rect id="XMLID_11101_" width="5.7" height="1" x="-1.2" y="43.5" class="st2" transform="matrix(0.8558 0.5174 -0.5174 0.8558 23.0141 5.4795)"/></g><g id="XMLID_9624_"><rect id="XMLID_11100_" width="10.1" height="1" x="-1.9" y="37.4" class="st2" transform="matrix(0.7495 0.662 -0.662 0.7495 25.8823 7.4393)"/></g><g id="XMLID_9623_"><rect id="XMLID_11099_" width="3.6" height="1" x="-1.2" y="46.2" class="st2" transform="matrix(0.8601 0.5102 -0.5102 0.8601 23.9156 6.231)"/></g><g id="XMLID_9622_"><rect id="XMLID_11098_" width="30" height="1" x="7" y="61.8" class="st2" transform="matrix(0.7037 0.7105 -0.7105 0.7037 50.8005 2.85)"/></g><g id="XMLID_9621_"><rect id="XMLID_11097_" width="31" height="1" x="10.7" y="61.5" class="st2" transform="matrix(0.7011 0.7131 -0.7131 0.7011 52.0834 -0.1656)"/></g><g id="XMLID_9620_"><rect id="XMLID_11096_" width="12.6" height="1" x="39" y="66.5" class="st2" transform="matrix(7.165209e-002 0.9974 -0.9974 7.165209e-002 108.9364 17.0104)"/></g><g id="XMLID_9619_"><rect id="XMLID_11095_" width="5.6" height="1" x="62.6" y="69.7" class="st2" transform="matrix(0.2817 0.9595 -0.9595 0.2817 114.3371 -12.354)"/></g><g id="XMLID_9618_"><rect id="XMLID_11094_" width="16.3" height="1" x="40.2" y="64.6" class="st2" transform="matrix(8.835238e-002 0.9961 -0.9961 8.835238e-002 108.9445 11.2072)"/></g><g id="XMLID_9617_"><rect id="XMLID_11093_" width="14.9" height="1" x="45.4" y="65.2" class="st2" transform="matrix(0.126 0.992 -0.992 0.126 111.2951 4.9815)"/></g><g id="XMLID_9616_"><rect id="XMLID_11092_" width="14.2" height="1" x="49.3" y="65.5" class="st2" transform="matrix(0.1448 0.9895 -0.9895 0.1448 113.5699 0.6512)"/></g><g id="XMLID_9615_"><rect id="XMLID_11091_" width="14.8" height="1" x="53.6" y="65.3" class="st2" transform="matrix(0.2294 0.9733 -0.9733 0.2294 111.0209 -8.6091)"/></g><g id="XMLID_9614_"><rect id="XMLID_11090_" width="30.6" height="1" x="16.2" y="61.8" class="st2" transform="matrix(0.724 0.6897 -0.6897 0.724 51.6634 -4.5113)"/></g><g id="XMLID_9613_"><rect id="XMLID_11089_" width="10.4" height="1" x="18.7" y="68.6" class="st2" transform="matrix(0.6253 0.7803 -0.7803 0.6253 62.8351 7.2355)"/></g><g id="XMLID_9612_"><rect id="XMLID_11088_" width="9.5" height="1" x="-1.4" y="69.4" class="st2" transform="matrix(0.7071 0.7071 -0.7071 0.7071 50.396 18.0755)"/></g><g id="XMLID_9611_"><rect id="XMLID_11087_" width="6.9" height="1" x="-3.6" y="69.8" class="st2" transform="matrix(0.6398 0.7685 -0.7685 0.6398 53.9398 25.4384)"/></g><g id="XMLID_9610_"><rect id="XMLID_11086_" width="5.7" height="1" x="68.2" y="1.1" class="st2" transform="matrix(0.5861 0.8103 -0.8103 0.5861 30.6648 -56.9239)"/></g><g id="XMLID_9609_"><rect id="XMLID_11085_" width="9.8" height="1" x="65.8" y="3" class="st2" transform="matrix(0.3776 0.926 -0.926 0.3776 47.2125 -63.3227)"/></g><g id="XMLID_9608_"><rect id="XMLID_11084_" width="1" height="18.1" x="66.1" y="18.4" class="st2" transform="matrix(0.7506 0.6607 -0.6607 0.7506 34.745 -37.1651)"/></g><g id="XMLID_9607_"><rect id="XMLID_11083_" width="1" height="15.3" x="66.8" y="27.2" class="st2" transform="matrix(0.7071 0.7071 -0.7071 0.7071 44.3428 -37.3735)"/></g><g id="XMLID_9606_"><rect id="XMLID_11082_" width="1" height="13.7" x="67.5" y="13.9" class="st2" transform="matrix(0.7182 0.6958 -0.6958 0.7182 33.6338 -41.433)"/></g><g id="XMLID_9605_"><rect id="XMLID_11081_" width="1" height="36.7" x="59.2" y="18.9" class="st2" transform="matrix(0.7052 0.7091 -0.7091 0.7052 44.0398 -31.3001)"/></g><g id="XMLID_9604_"><rect id="XMLID_11080_" width="1" height="11.3" x="67.4" y="51.2" class="st2" transform="matrix(0.5352 0.8447 -0.8447 0.5352 79.582 -30.9459)"/></g><g id="XMLID_9603_"><rect id="XMLID_11079_" width="1" height="12.6" x="67" y="54.1" class="st2" transform="matrix(0.5333 0.8459 -0.8459 0.5333 82.5626 -28.8855)"/></g><g id="XMLID_9602_"><rect id="XMLID_11078_" width="1" height="7.1" x="69.3" y="61.2" class="st2" transform="matrix(0.5605 0.8281 -0.8281 0.5605 84.3104 -29.3482)"/></g><g id="XMLID_9601_"><rect id="XMLID_11077_" width="1" height="4.4" x="70.3" y="65" class="st2" transform="matrix(0.4919 0.8706 -0.8706 0.4919 94.444 -27.4944)"/></g><g id="XMLID_9600_"><rect id="XMLID_11076_" width="14.9" height="1" x="57.8" y="50" class="st2" transform="matrix(0.9864 0.1644 -0.1644 0.9864 9.1833 -10.0345)"/></g><g id="XMLID_9599_"><rect id="XMLID_11075_" width="15.6" height="1" x="57.5" y="44.9" class="st2" transform="matrix(0.9494 0.314 -0.314 0.9494 17.568 -18.1976)"/></g><g id="XMLID_9598_"><rect id="XMLID_11074_" width="16.9" height="1" x="55.9" y="47.3" class="st2" transform="matrix(0.9763 0.2162 -0.2162 0.9763 11.863 -12.7879)"/></g><g id="XMLID_9597_"><rect id="XMLID_11073_" width="5.5" height="1" x="67.8" y="38.2" class="st2" transform="matrix(0.7944 0.6074 -0.6074 0.7944 37.994 -34.9095)"/></g><g id="XMLID_9596_"><rect id="XMLID_11072_" width="8.7" height="1" x="64.8" y="40.7" class="st2" transform="matrix(0.8558 0.5174 -0.5174 0.8558 31.3046 -29.8)"/></g><g id="XMLID_9595_"><rect id="XMLID_11071_" width="4.9" height="1" x="68.6" y="33.9" class="st2" transform="matrix(0.7495 0.662 -0.662 0.7495 40.5457 -38.4459)"/></g><g id="XMLID_9594_"><rect id="XMLID_11070_" width="10.8" height="1" x="62.6" y="43.5" class="st2" transform="matrix(0.8601 0.5101 -0.5101 0.8601 31.9603 -28.5453)"/></g><g id="XMLID_9593_"><rect id="XMLID_11069_" width="5" height="1" x="68.7" y="69" class="st2" transform="matrix(0.6398 0.7685 -0.7685 0.6398 79.0881 -29.6898)"/></g><g id="XMLID_9592_"><rect id="XMLID_11068_" width="3.6" height="1" x="67.3" y="70.9" class="st2" transform="matrix(0.3778 0.9259 -0.9259 0.3778 109.0716 -19.5104)"/></g></g><g id="XMLID_9555_"><g id="XMLID_9556_"><rect id="XMLID_11035_" width="3.6" height="1" x="67.3" y="-1.1" class="st2" transform="matrix(0.3778 0.9259 -0.9259 0.3778 42.4066 -64.3115)"/></g></g></g></g><g id="XMLID_9553_"><g id="XMLID_9364_"><g id="XMLID_9379_"><g id="XMLID_9380_"><rect id="XMLID_10868_" width="6.9" height="1" x="68.4" y="69.8" class="st2" transform="matrix(0.6398 0.7685 -0.7685 0.6398 79.8726 -29.8953)"/></g></g><g id="XMLID_9365_"><g id="XMLID_9378_"><rect id="XMLID_10867_" width="30" height="1" x="7" y="61.8" class="st2" transform="matrix(0.7037 0.7105 -0.7105 0.7037 50.8005 2.85)"/></g><g id="XMLID_9377_"><rect id="XMLID_10866_" width="31" height="1" x="10.7" y="61.5" class="st2" transform="matrix(0.7011 0.7131 -0.7131 0.7011 52.0834 -0.1656)"/></g><g id="XMLID_9376_"><rect id="XMLID_10865_" width="12.6" height="1" x="39" y="66.5" class="st2" transform="matrix(7.165209e-002 0.9974 -0.9974 7.165209e-002 108.9364 17.0104)"/></g><g id="XMLID_9375_"><rect id="XMLID_10864_" width="5.6" height="1" x="62.6" y="69.7" class="st2" transform="matrix(0.2817 0.9595 -0.9595 0.2817 114.3371 -12.354)"/></g><g id="XMLID_9374_"><rect id="XMLID_10863_" width="16.3" height="1" x="40.2" y="64.6" class="st2" transform="matrix(8.835238e-002 0.9961 -0.9961 8.835238e-002 108.9445 11.2072)"/></g><g id="XMLID_9373_"><rect id="XMLID_10862_" width="14.9" height="1" x="45.4" y="65.2" class="st2" transform="matrix(0.126 0.992 -0.992 0.126 111.2951 4.9815)"/></g><g id="XMLID_9372_"><rect id="XMLID_10861_" width="14.2" height="1" x="49.3" y="65.5" class="st2" transform="matrix(0.1448 0.9895 -0.9895 0.1448 113.5699 0.6512)"/></g><g id="XMLID_9371_"><rect id="XMLID_10860_" width="14.8" height="1" x="53.6" y="65.3" class="st2" transform="matrix(0.2294 0.9733 -0.9733 0.2294 111.0209 -8.6091)"/></g><g id="XMLID_9370_"><rect id="XMLID_10859_" width="30.6" height="1" x="16.2" y="61.8" class="st2" transform="matrix(0.724 0.6897 -0.6897 0.724 51.6634 -4.5113)"/></g><g id="XMLID_9369_"><rect id="XMLID_10858_" width="10.4" height="1" x="18.7" y="68.6" class="st2" transform="matrix(0.6253 0.7803 -0.7803 0.6253 62.8351 7.2355)"/></g><g id="XMLID_9368_"><rect id="XMLID_10857_" width="9.5" height="1" x="-1.4" y="69.4" class="st2" transform="matrix(0.7071 0.7071 -0.7071 0.7071 50.396 18.0755)"/></g><g id="XMLID_9367_"><rect id="XMLID_10856_" width="6.9" height="1" x="-3.6" y="69.8" class="st2" transform="matrix(0.6398 0.7685 -0.7685 0.6398 53.9398 25.4384)"/></g><g id="XMLID_9366_"><rect id="XMLID_10855_" width="3.6" height="1" x="67.3" y="70.9" class="st2" transform="matrix(0.3778 0.9259 -0.9259 0.3778 109.0716 -19.5104)"/></g></g></g></g><g id="XMLID_9173_"><g id="XMLID_8417_"><g id="XMLID_9134_"><g id="XMLID_9153_"><rect id="XMLID_10658_" width="8.6" height="1" x="-2.2" y="5.2" class="st2" transform="matrix(0.586 0.8103 -0.8103 0.586 5.4711 0.7002)"/></g><g id="XMLID_9152_"><rect id="XMLID_10657_" width="9" height="1" x="-3.3" y="9" class="st2" transform="matrix(0.3776 0.926 -0.926 0.3776 9.5495 4.8314)"/></g><g id="XMLID_9151_"><rect id="XMLID_10656_" width="1" height="14.2" x="3.6" y="9.6" class="st2" transform="matrix(0.7506 0.6607 -0.6607 0.7506 12.0513 1.4848)"/></g><g id="XMLID_9150_"><rect id="XMLID_10655_" width="1" height="26.9" x="8.3" y="7.9" class="st2" transform="matrix(0.7071 0.7071 -0.7071 0.7071 17.6756 6.948665e-002)"/></g><g id="XMLID_9149_"><rect id="XMLID_10654_" width="1" height="8.4" x="1.8" y="10.1" class="st2" transform="matrix(0.7182 0.6958 -0.6958 0.7182 10.5724 2.3811)"/></g><g id="XMLID_9148_"><rect id="XMLID_10653_" width="1" height="19.8" x="6" y="8.7" class="st2" transform="matrix(0.7052 0.7091 -0.7091 0.7052 15.105 0.9037)"/></g><g id="XMLID_9147_"><rect id="XMLID_10652_" width="1" height="7" x="1.7" y="49.4" class="st2" transform="matrix(0.5352 0.8447 -0.8447 0.5352 45.6722 22.7512)"/></g><g id="XMLID_9146_"><rect id="XMLID_10651_" width="1" height="10.9" x="3.3" y="49.7" class="st2" transform="matrix(0.5333 0.8459 -0.8459 0.5333 48.4106 22.5366)"/></g><g id="XMLID_9145_"><rect id="XMLID_10650_" width="1" height="15.5" x="4.9" y="51.8" class="st2" transform="matrix(0.5605 0.8281 -0.8281 0.5605 51.7476 21.6802)"/></g><g id="XMLID_9144_"><rect id="XMLID_10649_" width="1" height="3.7" x=".1" y="64.3" class="st2" transform="matrix(0.4919 0.8706 -0.8706 0.4919 57.8927 33.0894)"/></g><g id="XMLID_9143_"><rect id="XMLID_10648_" width="3.3" height="1" x="-.9" y="51.2" class="st2" transform="matrix(0.9864 0.1646 -0.1646 0.9864 8.5237 0.5817)"/></g><g id="XMLID_9142_"><rect id="XMLID_10647_" width="2.9" height="1" x="-1.1" y="47.3" class="st2" transform="matrix(0.9494 0.314 -0.314 0.9494 15.0261 2.2966)"/></g><g id="XMLID_9141_"><rect id="XMLID_10646_" width="3.8" height="1" x="-1" y="49.2" class="st2" transform="matrix(0.9763 0.2165 -0.2165 0.9763 10.7826 0.9815)"/></g><g id="XMLID_9140_"><rect id="XMLID_10645_" width="7" height="1" x="-1.4" y="40.9" class="st2" transform="matrix(0.7943 0.6075 -0.6075 0.7943 25.5736 7.227)"/></g><g id="XMLID_9139_"><rect id="XMLID_10644_" width="5.7" height="1" x="-1.2" y="43.5" class="st2" transform="matrix(0.8558 0.5174 -0.5174 0.8558 23.0141 5.4795)"/></g><g id="XMLID_9138_"><rect id="XMLID_10643_" width="10.1" height="1" x="-1.9" y="37.4" class="st2" transform="matrix(0.7495 0.662 -0.662 0.7495 25.8823 7.4393)"/></g><g id="XMLID_9137_"><rect id="XMLID_10642_" width="3.6" height="1" x="-1.2" y="46.2" class="st2" transform="matrix(0.8601 0.5102 -0.5102 0.8601 23.9156 6.231)"/></g><g id="XMLID_9136_"><rect id="XMLID_10641_" width="9.5" height="1" x="-1.4" y="69.4" class="st2" transform="matrix(0.7071 0.7071 -0.7071 0.7071 50.396 18.0755)"/></g><g id="XMLID_9135_"><rect id="XMLID_10640_" width="6.9" height="1" x="-3.6" y="69.8" class="st2" transform="matrix(0.6398 0.7685 -0.7685 0.6398 53.9398 25.4384)"/></g></g></g></g><g id="XMLID_8416_"><g id="XMLID_8227_"><g id="XMLID_8242_"><g id="XMLID_8244_"><rect id="XMLID_22_" width="9.5" height="1" x="-1.4" y="69.4" class="st2" transform="matrix(0.7071 0.7071 -0.7071 0.7071 50.396 18.0755)"/></g><g id="XMLID_8243_"><rect id="XMLID_21_" width="6.9" height="1" x="-3.6" y="69.8" class="st2" transform="matrix(0.6398 0.7685 -0.7685 0.6398 53.9398 25.4384)"/></g></g></g></g></g></g></svg>